<svg width="168" height="56" viewBox="0 0 168 56" fill="none" xmlns="http://www.w3.org/2000/svg">
<g clip-path="url(#clip0_4_17)">
<path d="M62.53 25H62.27H61.76H60.43H60.24H60H59.51H59.22L59 24.8V24.54L59.06 24.22V23.74L59.16 23.48L59.23 23.19L59.29 22.73L59.36 22.35V22.12L59.49 21.7L59.55 21.25V20.8L59.62 20.6V20.38L59.69 20.15V19.89L59.78 19.63V19.44L60 18.9L60.07 18.39L60.19 18.06V17.74L60.29 17.29L60.39 17.03L60.45 16.77V16.58V16.35L60.55 15.93L60.62 15.51V15.28L60.71 14.9V14.7V14.57L60.77 14.25L61 13.8V13.34L61.07 13.18L61.2 12.76V12.5L61.33 12.05L61.39 11.6V11.34V11.11L61.45 10.89L61.55 10.6V10.31V9.92001L61.62 9.69001V9.50001L61.72 9.24001V8.95001V8.76001V8.53001L62 8.34001V8.14001L62.06 7.66001L62.19 7.20001L62.26 6.20001L62.35 5.72001L62.45 5.30001L62.64 4.52001L62.74 4.10001V3.81001V3.59001V3.10001L62.8 2.81001L62.9 2.65001L63.19 2.39001H63.64H64.45H64.64H65H65.68L67.26 2.45001H68.55H69H70L70.36 2.52001H70.68L71.17 2.65001L71.56 2.74001L71.88 2.91001L72.17 3.04001L72.53 3.33001L72.95 3.78001L73.24 4.04001L73.37 4.23001L73.46 4.39001L73.59 4.78001L73.79 5.23001V5.49001V5.72001L74 6.00001L74.07 6.38001V6.87001L74 7.00001V7.23001V7.42001L73.94 7.65001V7.84001L73.87 8.26001V8.49001L73.65 9.00001V9.19001L73.59 9.42001V9.52001V9.74001L73.53 9.94001L73.46 10.16L73.37 10.36L73.24 10.65L73 11L72.77 11.33L72.52 11.71L72.1 12.13L71.93 12.26L71.77 12.46L71.61 12.59L71.39 12.72L71 12.94L70.61 13.1L70.32 13.23V13.43L70.64 13.56L71 13.75L71.29 13.88L71.68 14.14L71.87 14.36L72.06 14.56L72.26 14.88L72.39 15.11L72.55 15.46L72.61 15.79L72.71 15.98L72.77 16.4L72.9 16.82V17.24L72.97 17.56V17.85V18.27V18.5L72.91 18.99L72.81 19.47L72.71 19.89V20.12L72.61 20.57L72.55 20.76L72.49 20.99L72.42 21.18L72.36 21.41L71.84 22.41L71.55 22.8L71.35 23.16L71 23.3L70.78 23.49L70.65 23.65L70.39 23.82L70.19 23.91L70.03 24.07L69.81 24.2L69.64 24.33L69.48 24.43L69.26 24.53L69 24.66L68.64 24.75L68.38 24.85H68.19H67.9L67.48 24.95H67.29L66.8 25.05H66.32H66.09H65.86H64.99H64.57H64.31H63.86H63.6H63.5H63.02L62.53 25ZM64.92 20.8L65.73 20.9H66.35L66.57 20.8H66.8L67.02 20.7L67.32 20.48L67.54 20.28L67.74 19.99V19.73L67.9 19.38L67.96 19.15V18.89L68.12 18.47L68.18 17.89V17.34V16.92L68 16.16L67.65 15.83L67 15.61L66.68 15.54L66.42 15.48H66H65.64H65.19L65.09 15.77L65.03 16.35L64.96 16.61L64.9 16.74L64.83 17.22L64.77 17.45V17.67L64.7 17.87V18.13L64.64 18.58L64.57 18.8L64.48 19.29V19.52L64.41 19.97L64.35 20.23V20.48L64.23 20.91H64.74L64.92 20.8ZM67.15 11L67.54 10.93L67.8 10.77L68.16 10.54L68.54 10.22L68.7 9.93001L69 9.60001L69.16 9.14001L69.26 8.76001L69.33 8.56001V8.30001L69.45 8.00001V7.64001V7.42001V7.03001L69.26 6.64001L69.16 6.48001L68.9 6.26001H68.71L68.42 6.20001L67.84 6.13001H67.03L66.77 6.20001V6.42001L66.67 6.72001V7.01001V7.23001L66.57 7.62001V7.85001L66.47 8.27001V8.49001L66.41 8.69001L66 10.21L65.94 10.47V10.79V11H66.36H66.75H67.15Z" fill="#1D1D1B"/>
<path d="M77.4 25.08H76.78H76.56H76.27H75.07H74.81L74.52 25L74.42 24.65L74.49 24.48V24.23L74.65 23.77V23.29L74.75 22.84V22.61V22.35L74.85 21.87V21.64L74.92 21.38V21.16L75.05 20.74V20.54L75.14 19.96L75.24 19.73V19.67V19.6L75.3 19.31L75.37 19.09V18.89V18.67L75.44 18.41L75.5 17.99V17.83L75.63 17.44V17.25L75.72 16.83L75.82 16.6V16.37L75.89 16.08L76.02 15.4V15.21L76.08 14.76V14.3L76.21 13.85V13.63L76.28 13.17L76.41 12.92V12.5L76.47 12.12L76.57 11.7L76.73 11.24L76.83 10.57V10.11L76.92 9.89001L76.99 9.43001V9.24001V9.01001L77.12 8.63001V8.43001L77.4 8.00001V7.78001L77.53 7.36001V7.13001V6.87001V6.45001L77.6 6.29001L77.66 5.84001L77.76 5.42001L77.91 5.00001V4.61001L78 4.30001L78.13 3.94001L78.2 3.46001L78.26 3.26001V3.04001V2.68001L78.36 2.49001L78.75 2.42001H79.11H79.59H79.88H80.33H80.56H82H82.22L82.58 2.52001L82.71 2.84001V3.03001V3.45001L82.64 3.55001V3.91001V4.10001L82.55 4.23001V4.52001L82.45 4.68001L82.38 5.13001L82.25 5.42001V5.68001V5.88001V6.10001V6.30001L82 7.11001V7.46001L81.94 7.66001L81.83 8.00001V8.23001V8.62001V8.85001L81.76 9.27001L81.67 9.65001L81.57 10.07V10.23L81.47 10.69L81.41 10.85H81.92H82.21H82.63H83L83.51 10.91H83.77L84.77 11.07L85.25 11.17L85.48 11.24L85.74 11.4L85.96 11.5L86.35 11.72L86.67 11.98L86.77 12.14L87 12.4L87.16 12.63L87.29 12.89L87.48 13.3V13.53L87.74 14.24V14.47L87.84 14.82V15.15V15.63V15.86V16.21V16.57L87.78 16.92L87.71 17.15L87.65 17.67L87.58 18.12L87.52 18.35L87.45 18.61L87.39 18.83L87.26 19.22L87.16 19.67L87.07 19.93L86.9 20.38L86.7 21L86.54 21.35L86.09 22.22L85.9 22.42L85.67 22.81L85.41 23.07L85.12 23.39L84.93 23.61L84.35 24.1L83.93 24.33L83.6 24.42L83.15 24.62L82.67 24.78L82.28 24.84H81.86L81.41 24.91L80.47 24.97H78.69H78.24H77.62L77.4 25.08ZM80.63 20.78L81.11 20.71L81.31 20.62L81.89 20.26L82.21 19.94L82.44 19.58L82.6 19.39L82.76 19L82.99 18.42L83.09 17.87L83.21 17.16V16.32V15.77L83.09 15.38L82.89 15.09L82.54 14.9L82.28 14.83L81.53 14.73H80.73H80.6L80.53 15.02L80.47 15.44L80.4 15.83L80.27 16.28V16.54L80.14 16.99V17.25L80.08 17.7V17.86V18.32L79.92 18.64V19L79.82 19.48V19.74L79.69 20.16V20.42V20.64L80.37 20.71L80.63 20.78ZM91.75 25.08H90.81L90.36 25H90.1H89.87H89.52H89.29H89H88.77L88.52 24.77V24.29L88.68 23.83V23.35L88.74 23.12L88.81 22.67V22.41L88.91 21.93V21.7L88.97 21.44V21.22L89.1 20.8V20.6L89.2 20.02L89.3 19.66L89.36 19.37L89.46 19.08L89.52 18.79L89.59 18.4V18.18L89.65 17.95V17.76L89.72 17.53V17.31L89.94 16.59L90.01 16.11V15.92L90.07 15.69V15.46V15.27L90.13 14.82V14.36L90.26 13.91V13.69L90.32 13.23L90.45 12.98V12.5L90.52 12.12L90.61 11.7L90.78 11.24L90.87 10.57V10.11L90.97 9.89001L91.03 9.43001V9.24001V9.01001L91.16 8.63001V8.43001L91.42 8.00001V7.78001L91.55 7.36001V7.13001V6.87001V6.45001L91.61 6.29001L91.68 5.84001L91.77 5.42001V5.22001L91.94 5.00001V4.61001L92 4.30001L92.13 3.94001L92.19 3.46001L92.26 3.26001V3.04001L92.48 2.71001L92.71 2.62001L92.91 2.49001H93.13H93.62H93.91H94.36H94.59H96.3H96.52L96.88 2.59001L97.01 2.91001V3.10001V3.52001L96.94 3.62001V3.98001V4.17001L96.85 4.30001V4.59001L96.75 4.75001L96.68 5.20001L96.55 5.49001V5.75001V5.95001V6.17001V6.37001L96.39 7.21001L96.32 7.56001L96.26 7.76001L96.17 8.00001V8.23001V8.62001V8.85001L96 9.31001L95.91 9.69001L95.81 10.11V10.27L95.71 10.73L95.61 11.02V11.31V11.54V11.79V12L95.54 12.42L95.45 12.74L95.28 13.74L95.16 14.2L95.06 14.42V14.68L94.96 15.1L94.9 15.52L94.83 15.91L94.7 16.36V16.62L94.57 17.07V17.33L94.51 17.78V17.94V18.4L94.35 18.72V19.08L94.25 19.56V19.82L94.12 20.24V20.5L94.02 20.95L93.96 21.4L93.89 21.82V22L93.8 22.35L93.67 23.13L93.57 23.55L93.4 24L93.3 24.42V24.68L93.2 24.97L92.84 25.07H92L91.75 25.08Z" fill="#1D1D1B"/>
<path d="M102.8 25.4H102.57H102.35H101.99H101.73H101.54H101.21L100.99 25.33H100.79L100.37 25.17L99.99 25.04L99.79 24.88L99.47 24.68L99.31 24.56L99.11 24.43L98.69 24.1L98.56 23.94L98.4 23.78L98.18 23.33L97.89 22.91L97.79 22.49L97.72 22.29L97.66 21.87L97.6 21.65V21.03V20.77V20.48V20.26V19.42V18.74V18.48V18.03L97.67 17.58V17.35V17.15L97.73 16.48L97.86 16.02V15.73L97.93 15.47L98.02 15.12V14.96L98.12 14.38L98.25 14.18V13.73V13.63V13.5L98.35 13.15L98.41 12.79L98.51 12.47V12.08V11.7L98.61 11.5V11.05L98.77 10.4L98.83 10.18L99 9.82001V9.50001L99.1 9.31001V9.08001L99.16 8.85001V8.66001V8.43001L99.26 8.21001L99.35 7.79001L99.58 7.14001L99.77 6.49001L99.9 6.04001L100.09 5.49001L100.26 5.10001L100.45 4.65001L100.58 4.30001L100.81 4.10001L101.03 3.78001L101.29 3.46001L101.74 3.00001L101.94 2.84001L102.36 2.65001L102.55 2.55001L103.23 2.26001L103.78 2.16001L104.2 2.07001H104.43H104.91H105.52H106.04L106.85 2.17001L107.14 2.27001H107.46L107.92 2.33001H108.11L108.34 2.40001H108.56L108.69 2.50001L109.05 2.56001L109.5 2.72001L109.92 3.05001L110.28 3.37001L110.34 3.53001L110.5 3.82001L110.6 3.98001L110.66 4.21001L110.82 4.53001L110.89 4.89001V5.28001V5.70001V5.99001V6.47001V7.18001V7.51001L110.82 7.76001L110.76 8.25001L110.69 8.77001L110.75 10L110.68 10.25L110.52 11.09L110.39 11.22H110.01H109.55H107.55L106.61 11.09L106.38 10.73V10.28L106.45 10.05L106.58 9.47001L106.64 9.02001L106.84 8.31001V7.89001L106.9 7.44001V7.00001L106.71 6.42001L106.35 6.23001L105.9 6.10001H105.55L105.16 6.16001L104.8 6.29001L104.51 6.65001L104.41 6.84001L104.32 7.07001L104.19 7.61001L104 8.00001L103.8 8.55001V8.75001L103.67 9.14001L103.58 9.62001L103.48 10.01L103.38 10.3V10.53V10.72L103.31 10.95L103.25 11.4L103.09 11.88L102.83 13.18V13.43L102.7 13.95V14.18L102.64 14.6L102.58 14.86L102.48 15.34V16.02L102.38 16.25V16.47V16.73V16.96L102.31 17.18V17.41L102.22 18.09V18.35L102.12 18.8V19.25V19.57V19.77V20L102.25 20.49L102.51 20.72L102.99 20.88L103.51 20.81H104L104.45 20.52L104.58 20.36L104.83 19.78L105 19.33L105.13 18.91V18.71V18.55L105.23 18.16L105.32 17.68L105.39 17.39V17.16L105.55 16.74L105.62 16.42L105.84 16.16H106.1H106.94H107.62L109.2 16.26H109.59L109.82 16.48L109.95 16.71V17.07L109.88 17.26V17.49L109.82 17.91V18.26L109.75 18.42V18.65V18.78L109.65 19.46L109.59 19.65L109.39 20.46L109.29 20.85V21.07L109.23 21.3L109.13 21.49L108.94 22.01L108.78 22.4L108.68 22.62L108.55 22.82L108.39 23.01L108.29 23.21L108.23 23.4L107.74 23.98L107.26 24.4L106.74 24.73L106.51 24.82L105.67 25.02L105.28 25.11L104.9 25.18L104.48 25.28H103.99H103.57L103.25 25.34L102.8 25.4Z" fill="#1D1D1B"/>
<path d="M113.72 25H113.49L113.2 24.75L113.27 24.26V23.58L113.5 22.9L113.56 22.68V22.19L113.63 22V21.55V21.32L113.79 20.87V20.64V20.38L113.95 19.7V19.45L114.05 19.06L114.15 18.57L114.21 18.35V18.12L114.28 17.7L114.34 17.51V17.05L114.5 16.73L114.43 16.41V16.18L114.5 15.96L114.66 15.5L114.79 15.02L114.86 14.79L114.79 14.57L114.95 14.18L115.02 13.98V13.53L115.11 13.21V13L115.18 12.77L115.31 12.58V12.35L115.37 12.16L115.47 11.67V11.45L115.63 11.09V10.77L115.69 10.61V10.35V10.12L115.75 9.89001L115.91 9.38001V9.18001V9.00001V8.77001V8.53001L116 8.11001L116.07 7.88001L116.13 7.40001V6.88001H114.38H113.93H113.7H113.41H113.09H112.83L112.54 6.78001L112.44 6.49001L112.51 6.10001L112.6 5.84001V5.56001V5.33001L112.73 4.88001L112.79 4.68001V4.23001L112.92 3.81001L113.01 3.62001V3.16001V2.97001L113.17 2.62001L113.46 2.39001H113.68H114.52H114.69H114.91H115.14H117.53H117.76H118.47H120.54H121.02H121.7H121.99H123.99H124.45L124.74 2.46001L124.8 2.71001V2.91001V3.13001L124.73 3.39001V3.62001V3.81001L124.67 4.04001V4.23001L124.6 4.62001L124.54 4.85001V5.04001V5.43001L124.41 5.85001L124.35 6.08001V6.53001L124.22 6.82001H123.89H123.6H123.22H122.92H122.6H121.24H120.95L120.89 7.05001V7.24001L120.79 7.47001V7.66001L120.73 7.86001L120.67 8.28001V8.50001L120.54 9.08001L120.41 9.34001L120.48 9.50001L120.32 9.96001L120.19 10.38V10.57V10.96V11.15V11.38L120.03 11.77L119.97 12.25L119.9 12.48L119.81 12.93L119.71 13.12V13.35V13.77L119.61 14.16L119.48 14.38V14.84L119.41 15.03V15.22L119.32 15.68L119.22 16.16L119.15 16.45V16.78V16.97L119.09 17.16V17.39L118.97 17.78V18V18.2V18.42L118.88 18.88L118.78 19.39L118.65 19.81V20.04L118.55 20.46L118.39 21.14L118.32 21.4L118.23 21.85V22.11L118.07 22.82L117.88 23.72L117.81 24.18L117.71 24.63L117.65 24.82L117.26 24.98H114.4L114.01 25.08L113.72 25Z" fill="#1D1D1B"/>
<path d="M124.61 25H124.38H123.8L123.61 24.84V24.23L123.71 24.03V23.81L123.81 23.36V23.16L123.91 22.71L124 22.22L124.1 21.8V21.58L124.2 21.19V20.96V20.77L124.32 20.03L124.42 19.83V19.41V19.19L124.48 18.99L124.61 18.57V18.38V17.99V17.83L124.78 17.51V17.15L125 17V16.77L125.1 16.58V16.09L125.2 15.41L125.29 15.19V14.93V14.48L125.35 14.25V14.06L125.41 13.83V13.64L125.51 13.18V12.93L125.58 12.44L125.67 11.92L125.77 11.5V11.11V10.7L125.84 10.47L125.93 10.24V9.82001V9.63001L126.06 9.11001V8.76001V8.63001L126.16 8.21001V8.01001V7.43001L126.23 7.17001L126.32 6.72001L126.42 6.43001V6.04001L126.49 5.81001V5.56001L126.55 5.33001V5.10001V4.91001L126.62 4.68001L126.75 4.17001V3.94001V3.68001L126.85 3.23001V2.97001L126.98 2.55001L127.24 2.42001H128.92H129.34H129.76H129.95H132.12H132.34H132.83H133.28L133.77 2.48001H134.03L134.45 2.55001L135.12 2.65001L135.64 2.74001L135.87 2.81001L136.09 2.97001L136.32 3.07001L136.74 3.29001L137.03 3.55001L137.16 3.71001L137.35 3.97001L137.55 4.20001L137.64 4.46001L137.84 4.88001L137.9 5.10001L138.03 5.46001V5.81001V6.04001L138.12 6.39001V6.72001V7.20001V7.40001V7.75001V8.11001L138.06 8.47001V8.69001L137.99 9.40001L137.93 9.85001L137.83 10.08V10.34L137.73 10.57V10.76L137.66 10.95L137.57 11.41L137.47 11.66L137.31 12.12L137.05 12.73L136.89 13.09L136.66 13.47L136.37 13.96L136.18 14.15L135.95 14.54L135.66 14.8L135.43 15.12L135.27 15.35L134.85 15.67L134.69 15.87L134.24 16.09L133.92 16.19L133.5 16.38L132.98 16.54L132.59 16.61H132.17L131.72 16.68L130.81 16.74H130.2H130H129.51V16.8V17.03L129.41 17.29V17.71L129.35 17.87V18.29V18.48V18.71L129.29 18.9V19.13V19.32L129.2 19.77L129.1 20.06L129.03 20.45L128.97 20.68L128.87 21.07V21.29L128.77 21.52V21.84L128.68 22.33V22.78L128.55 22.97V23.23V23.46L128.49 23.65V23.88L128.39 24.14V24.43V24.69L128.29 25.07H128.06H125.48L124.61 25ZM131 12.63L131.36 12.57L131.97 12.5L132.2 12.41L132.71 12.02L133.07 11.7L133.3 11.34L133.43 11.15L133.59 10.7L133.65 10.4L133.78 10.11L133.91 9.56001L134.04 8.66001L134.1 7.82001V7.27001L134 6.88001L133.8 6.59001L133.45 6.33001L133.16 6.27001H132.28H131.54L131.31 6.33001L131.15 6.72001L131.09 6.88001V7.20001L131.02 7.75001L131 8.00001L130.9 8.39001L130.8 9.03001L130.74 9.36001L130.64 9.87001V10.26V10.52L130.57 10.81L130.41 11.62V11.91L130.31 12.36V12.65L131 12.63Z" fill="#1D1D1B"/>
<path d="M141.54 25H140.7H140.48H138.77L138.47 24.94L138.38 24.65L138.47 24.36L138.54 24.06L138.6 23.58L138.67 23.06L138.8 22.58V22.06L138.9 21.8V21.51L138.96 21.29V21.06L139.03 20.8V20.57V20.12L139.1 19.7L139.23 19.44L139.29 18.93V18.7L139.35 18.44L139.42 18.02V17.86L139.55 17.47V17.28L139.64 16.86L139.74 16.63V16.41L139.84 15.92L139.9 15.69L140.03 15.02V14.53L140.16 14.08L140.23 13.59L140.32 13.37V13.11V12.88V12.66L140.45 12.46L140.64 11.46L140.74 11.2L141 11V10.8L141.1 10.35L141.23 9.87V8.96L141.33 8.74V8.06001L141.46 7.86L141.52 7.6V7.38V7.18V6.96L141.65 6.54L141.72 6.09L141.82 5.89V5.69L141.91 5.46V5.27L142 5V4.58L142.06 4.39V4.19V3.77V3.58L141.99 3.35L142.09 2.96L142.19 2.77V2.58L142.45 2.38H143H143.19H143.42H143.81H144.03H144.29H144.61H145.32H147.75H148.49H148.75H149.69H150.4H150.69H151.01H151.3L151.47 2.61L151.37 2.96V3.16L151.3 3.97V4.2L151.21 4.43V4.65V4.85L151.12 5.33V5.59L150.99 6.04V6.24L150.9 6.66H150.57H149.22H148.83H146.73H145.95L145.86 7.05V7.28V7.73L145.77 7.92V8.18001L145.67 8.8L145.6 9.25L145.51 9.7L145.44 9.93001V10.18L145.35 10.51L145.28 11.09H145.87H147L147.61 11.03H148.45L148.71 11.09L148.9 11.35L148.84 11.74V12L148.77 12.35L148.68 12.81L148.61 13.03L148.52 13.52V13.74L148.42 14L148.35 14.45L148.26 14.97L148.19 15.42L148.13 15.49H147.8H147.32H147H146.19H145.64H145.29H144.87H144.58L144.45 15.85L144.35 16.27L144.22 17.17L144.12 17.5L144.06 17.79V18.11L143.99 18.34L143.89 18.92L143.76 19.76V20.02L143.89 20.15L144.35 20.21H146.25H146.71H147.42H148.32L148.55 20.31V20.57V20.7L148.49 21.05V21.31L148.36 22.02V22.44L148.29 22.67L148.23 22.86V23.09L148.13 23.57V24.12L148.06 24.41L147.96 24.77H144.89H144.38H143.96H143.76H143.08H142.57H142.31L141.54 25Z" fill="#1D1D1B"/>
<path d="M162.78 25.08H161.84L161.39 25.01H161.13H160.9H160.55H160.32H160.06L159.8 25L159.51 24.84V24.54L159.58 23.87L159.71 23.35L159.8 22.9V22.67V22.41L159.9 21.93V21.7L159.96 21.44V21.22L160.09 20.8V20.6L160.19 20.02L160.29 19.66L160.35 19.37L160.45 19.08L160.51 18.79L160.58 18.4V18.18L160.64 17.95V17.76L160.71 17.53V17.31L160.93 16.59L161 16.11V15.92L161.09 15.46V15.27L161.15 14.82V14.36L161.28 13.91V13.69L161.34 13.23L161.47 12.98V12.5L161.54 12.12L161.64 11.7L161.8 11.24L161.89 10.57V10.11L161.99 9.89L162.06 9.43V9.24V9.01L162.19 8.63V8.43L162.28 8.01V7.79L162.41 7.37V7.14V6.88V6.75H161.41H161.12H160.06H159.51V7.14L159.45 7.37L159.39 7.82V8.01V8.27L159.26 8.89L159.2 9.34L159 10.02V10.27L158.94 10.66L158.81 11.15L158.65 12.25L158.46 13.05L158.33 13.77L158.17 14.57L158.04 15.06V15.28V15.48L157.98 15.7L157.91 16.12L157.85 16.32L157.56 17.61L157.37 18.29L157.24 18.77L157.17 19L157.07 19.49L156.98 19.68L156.88 19.91L156.75 20.26L156.65 20.55L156.56 20.75L156.3 21.3L156.1 21.62L155.98 21.81L155.55 22.33L155.17 22.75L155.01 22.98L154.81 23.17L154.29 23.56L153.81 23.95L153.36 24.2L153.1 24.33L152.84 24.43L152.29 24.59L151.13 24.91H150.42L150.25 24.52V23.74V23.16V22.52V21.64V20.96V20.58C150.577 20.51 150.891 20.3885 151.18 20.22L151.83 19.7L152.32 19.09L152.67 18.54L152.87 18.09L152.96 17.7L153.12 17.25L153.25 16.8L153.41 16.25L153.61 15.41V15.18L153.68 14.89L153.77 14.47V14.11L153.93 13.34L154 13.08V12.63L154.1 12.43L154.16 11.43L154.29 11.17L154.36 10.95V10.75L154.43 10.3L154.56 9.82L154.62 8.91L154.72 8.69L154.78 8.01L154.91 7.81L155.01 7.55V7.33V7.13V6.91L155.17 6.49L155.24 6.04L155.34 5.84V5.69L155.43 5.46L155.37 5.27L155.6 5L155.67 4.58L155.73 4.39V4.19V3.77L155.8 3.58L155.73 3.35L155.86 2.96L155.96 2.77V2.58L156.32 2.35L156.83 2.28H157.03H157.58L157.9 2.35H158.13H158.38L159.58 2.41L161.29 2.32L162.68 2.41H163.17H163.39L164.04 2.47H164.36H164.65H165.11H165.33H167.05H167.27L167.63 2.57L167.76 2.89V3.08V3.5L167.7 3.6V3.96V4.15L167.6 4.28V4.57L167.51 4.73L167.44 5.18L167.31 5.47V5.73V5.93V6.15V6.35L167.15 7.19L167.08 7.54L167.02 7.74L166.95 8.12V8.35V8.74V8.97L166.88 9.39L166.78 9.77L166.69 10.19V10.35L166.6 10.81L166.5 11.1V11.39V11.62V11.87V12L166.43 12.42L166.33 12.74L166.17 13.74L166.11 13.97L165.95 14.42V14.68L165.78 15.52L165.72 15.91L165.59 16.36V16.62L165.46 17.07V17.33L165.4 17.78V17.94V18.4L165.24 18.72V19.08L165.15 19.56V19.82L165.02 20.24V20.5L164.92 20.95L164.85 21.4L164.79 21.82V22L164.69 22.35L164.56 23.13L164.47 23.55L164.4 24L164.31 24.42V24.68L164.22 24.97L163.86 25.07H163L162.78 25.08Z" fill="#1D1D1B"/>
<path d="M59.17 53.17V52.69V52.46L59.27 52.23V52.01L59.37 51.59V51.39L59.5 50.97V50.75V50.49V50.26L59.6 49.84V49.68L59.66 49.1L59.76 48.87V48.42L59.82 48.23V48L59.95 47.58V47.36L60.11 46.68L60.21 46.23L60.28 45.74L60.41 44.84L60.5 44.38L60.57 44.13L60.66 43.64L60.79 43.16V42.7V42.48L61 42L61.13 41.36L61.23 40.9V40.64V40.42L61.33 39.9L61.43 39.45V39.09V38.64L61.53 38.45V38.25L61.59 38.03V37.61L61.68 37.41L61.75 36.96V36.73L61.84 36.35L61.91 36.12V36L61.97 35.77V35.58V35.12L62.04 34.93V34.67L62.17 33.83L62.3 33.41V32.99L62.4 32.63V32.21L62.46 31.83L62.56 31.21L62.66 30.92L62.78 30.83H63.08L63.3 30.76H63.75H64.56H65.01H65.63H65.85H66.34H67L67.26 30.88L67.36 31.11L67.3 31.43L67.23 31.98V32.44L67.13 32.99L67.03 33.47V33.7L66.97 34.34L66.9 34.6L66.84 34.89V35.22L66.77 35.44V35.67L66.71 35.86L66.55 36.73L66.45 37.12L66.35 37.7L66.42 37.93L66.74 37.61L66.93 37.22L67.29 36.8L67.48 36.51L67.68 36.25L67.94 36.02L68.1 35.7L68.16 35.54L68.42 35.22L68.65 34.89L68.9 34.6L69.07 34.31L69.39 33.83L69.68 33.47L69.74 33.24L69.94 32.99L70.29 32.5L70.58 32.08L70.94 31.6L71.13 31.4L71.23 31.14L71.49 30.79L71.81 30.69H72.4H73.4H73.72H73.88H74.5L74.95 30.63L75.59 30.69H75.89L76.27 30.79L76.37 31.01L76.11 31.4L76.01 31.63L75.76 31.95L75.46 32.31L75.3 32.53L75.14 32.69V32.89L75.01 33.05L74.78 33.37L74.65 33.6L74.49 33.92L74.23 34.21L74.1 34.41L73.91 34.6L73.78 34.86L73.52 35.15L73.39 35.47L73.2 35.7L73.04 35.93L72.72 36.31L72.52 36.6L72.33 36.86L71.84 37.57L71.62 37.9L71.33 38.29L70.97 38.83L70.74 39.13L70.58 39.42L70.36 39.77L69.77 40.55L69.45 41.19L69.52 41.52L69.68 42.03L69.74 42.36L69.9 42.74L70 43.13L70.26 44.04L70.32 44.3L70.45 44.72L70.61 45.07L70.74 45.36V45.62L70.83 45.88V46.07L70.96 46.37V46.59L71.12 46.95L71.25 47.33L71.31 47.56L71.57 47.95V48.17V48.37L71.7 48.59L71.83 49.01V49.21L72.09 49.6V49.89V50.11L72.18 50.31V50.57L72.28 50.79L72.38 50.95V51.21L72.48 51.57L72.7 51.96L72.83 52.31L73.02 52.86L73.09 53.02V53.31H72.34H71.54H70.54H70.25H69.57H69.35H68.64L68.25 53.24L68.12 53.05L68.02 52.63L67.73 51.85L67.47 50.95L67.34 50.56L67.22 50.3L67.12 49.88L67.05 49.65L66.99 49.46L66.83 49.01L66.7 48.55L66.57 48.17L66.38 47.75L66.31 47.33V47.13L66.21 46.91L66.05 46.55V46.33L66 46V45.74L65.9 45.45L65.8 45.19L65.51 44.35L65.32 43.87H65.22V44.06L65.15 44.32V44.54L65.09 44.74L65.02 45.42L64.96 45.84L64.89 46.23V46.45V46.65L64.79 47.1L64.73 47.36V47.81V48.07V48.49L64.63 48.71L64.57 48.91L64.5 49.59L64.41 50.1L64.31 50.49L64.25 50.69V50.91V51.33L64.12 51.78L63.99 52.14V52.53L63.83 53.17L63.48 53.3H62.64H62.35H61.96H61.5H61H60.9H60.68H60H59.71H59.39L59.17 53.17Z" fill="#1D1D1B"/>
<path d="M78.37 53.4L78.14 53.33H77.37L77.24 52.87L77.56 52.16L78.08 51L78.5 50.32L78.69 49.8L78.82 49.58L78.92 49.38L79.01 49.12L79.11 48.9L79.27 48.64L79.56 48.03L79.72 47.7L79.92 47.22L80.08 47.06L80.18 46.8L80.11 46.41L79.92 45.63V44.99L79.69 44.08L79.62 43.08L79.46 42.47L79.34 42L79.21 41.25L79.11 40.61V40.35L79 39.76L78.91 39.44L78.79 39V38.84V38.42L78.62 38V37.58L78.52 36.94L78.42 36.71L78.36 36.32L78.26 36.07V35.71L78.07 35.23V34.48V34.26V34L78 33.72V33.26V33.1V32.78V32.46L77.82 32L77.72 31.58V31.39L77.79 30.9L77.98 30.77H79.14H79.53H79.82H80.01H80.44H80.92H81.4H81.57H81.79L82.05 30.89L82.12 31.35V31.77L82.21 32.22L82.34 32.96V33.35L82.47 33.74V34.19L82.57 34.64V34.84L82.63 36.16L82.7 36.42L82.76 36.84V37L82.83 37.88V38.78V39.62V40.69L83.06 40.33L83.96 38.04L84.03 37.85L84.16 37.68L84.29 37.33L84.41 37.1V36.91L84.67 36.46L84.83 36.07L85.05 35.74L85.31 35L85.54 34.58L85.64 34.39L85.93 33.71L85.99 33.51V33.29L86.28 32.64L86.38 32.42L86.51 32.19L86.64 31.8L86.74 31.61L86.99 31.06L87.12 30.74L87.41 30.67H87.64H88.13L88.61 30.74L89.13 30.67H89.97H90.36H91.07L91.49 30.8V31.35L91.26 31.84L91.2 32L90.97 32.35L90.84 32.74L90.62 33.13V33.36L90.5 33.74L90.37 33.9L90.24 34.29L90.04 34.65L89.98 34.84L89.85 35.04L89.78 35.23L89.56 35.84L89.43 36.04L89.27 36.49L89.01 36.88V37.07L88.59 37.94L88.49 38.33L88.26 38.62L88.07 39.2L88 39.37L87.84 39.56V39.75L87.58 40.17L87.45 40.37L87.32 40.59L87.23 41.01L87.13 41.18L87.06 41.34L86.84 41.86L86.61 42.24L86.48 42.69L86.35 42.89V43.05L86.19 43.24L86 43.7L85.91 44.09L85.78 44.25L85.68 44.51L85.62 44.67L85.52 44.8L85.23 45.38L85.16 45.61L84.97 45.93L84.74 46.29L84.42 47.29L84.26 47.68L84 48L83.81 48.42L83.61 48.81L83.55 49L83.36 49.3V49.52V49.68L82.97 50.52L82.88 50.72L82.62 51.14L82.49 51.53L82.36 51.72L82.13 52.08L81.52 53.34L80.74 53.4H80.42H80.29L79.71 53.46H79.26H79H78.78L78.37 53.4Z" fill="#1D1D1B"/>
<path d="M90.71 53.37H90.49H89.9L89.71 53.2V52.59L89.81 52.4V52.17L89.91 51.72V51.52L90.01 51.07L90.11 50.59L90.2 50.17V49.94L90.3 49.55V49.33V49.13L90.43 48.39L90.52 48.19V47.77V47.55L90.58 47.35L90.71 46.93V46.74V46.35V46.19L90.87 45.87V45.51L90.93 45.32V45.09L91.03 44.9V44.41L91.13 43.73L91.22 43.51V43.25V42.8L91.28 42.57V42.38L91.34 42.15V41.96L91.44 41.5V41.25L91.51 40.76L91.6 40.24L91.7 39.82V39.44V39.02L91.77 38.79L91.86 38.56V38.14V37.95L91.99 37.43V37.08V36.95L92.09 36.53V36.33V35.75L92.16 35.49L92.25 35.04L92.35 34.75V34.36L92.42 34.14V33.88L92.48 33.65V33.43V33.23L92.55 33.01L92.68 32.49V32.26V32L92.78 31.55V31.29L92.91 30.87L93.17 30.74H94.85H95.27H95.69H95.88H98.05H98.28H98.76H99.21L99.7 30.81H99.96L100.38 30.87L101.05 30.97L101.57 31.06L101.8 31.13L102.02 31.29L102.25 31.39L102.67 31.61L102.96 31.87L103.09 32.03L103.28 32.29L103.48 32.52L103.58 32.78L103.77 33.2L103.83 33.42L103.96 33.78V34.13V34.36L104.05 34.72V35.04V35.52V35.75V36.11V36.46L103.99 36.82V37.04L103.92 37.75L103.86 38.21L103.76 38.43V38.69L103.66 38.92V39.11L103.6 39.3L103.5 39.76L103.4 40.02L103.24 40.47L102.98 41.08L102.82 41.44L102.59 41.83L102.3 42.31L102.11 42.5L101.88 42.89L101.59 43.15L101.37 43.47L101.2 43.7L100.78 44.02L100.62 44.22L100.17 44.44L99.85 44.54L99.43 44.73L98.91 44.9L98.52 44.96H98.1L97.65 45.03L96.74 45.09H96.13H95.42H94.93V45.15V45.38L94.83 45.64V46.06L94.77 46.22V46.64V46.83V47.06L94.71 47.25V47.48V47.67L94.62 48.13L94.52 48.42L94.46 48.8L94.39 49.03L94.29 49.42V49.64L94.19 49.87V50.19L94.1 50.68V51.13L93.97 51.32V51.58V51.81L93.9 52V52.23L93.8 52.49V52.78V53.04L93.7 53.43H93.47H91.23L90.71 53.37ZM97.14 41L97.5 40.93L98.11 40.87L98.34 40.77L98.86 40.38L99.21 40.06L99.44 39.7L99.57 39.51L99.73 39.06L99.79 38.77L99.92 38.47L100.05 37.93L100.18 37.02L100.24 36.18V35.63L100.12 35.24L99.92 34.95L99.57 34.69L99.28 34.63H98.4H97.66L97.43 34.69L97.27 35.08L97.21 35.24V35.57L97.14 36.12L97.08 36.34L96.98 36.73L96.88 37.38L96.82 37.7L96.72 38.22V38.6V38.86L96.65 39.15L96.49 39.96V40.25L96.39 40.7V41H97.14Z" fill="#1D1D1B"/>
<path d="M110.36 53.72H110.13H109.91H109.55H109.29H109.1H108.78L108.55 53.65H108.36L107.94 53.49L107.55 53.36L107.35 53.2L107.03 53.01L106.87 52.88L106.68 52.75L106.26 52.42L106.13 52.26L105.96 52.1L105.74 51.65L105.45 51.23L105.35 50.81L105.29 50.61L105.22 50.19L105.16 49.97V49.35V49.1V48.8V48.58V47.74V47.06V46.8V46.35L105.23 45.9V45.67V45.48L105.29 44.8L105.42 44.35V44.05L105.49 43.8L105.58 43.44V43.28L105.68 42.7L105.81 42.5V42.05V41.95V41.82L105.91 41.47L105.97 41.11L106.07 40.79V40.4V40L106.17 39.8V39.35L106.33 38.71L106.39 38.48L106.46 38.12V37.8L106.56 37.61V37.38L106.62 37.15V36.96V36.73L106.72 36.51L106.81 36.09L107.04 35.44L107.23 34.79L107.36 34.34L107.56 33.79L107.72 33.41L107.91 32.95L108.04 32.6L108.27 32.4L108.49 32.08L108.75 31.76L109.2 31.3L109.4 31.14L109.82 30.95L110.01 30.85L110.69 30.56L111.24 30.46L111.66 30.37H111.89H112.37H112.99H113.5L114.31 30.47L114.6 30.57H114.93L115.38 30.63H115.57L115.8 30.7H116.02L116.15 30.8L116.51 30.86L116.96 31.02L117.38 31.35L117.74 31.67L117.8 31.83L117.96 32.12L118.06 32.28L118.12 32.51L118.29 32.83L118.35 33.19V33.58V34V34.29V34.77V35.48V35.81L118.28 36.07L118.22 36.55L118.15 37.07L117.96 38.33L117.9 38.59L117.73 39.43L117.6 39.56H117.22H116.76H114.76L113.82 39.43L113.59 39.07V38.62L113.66 38.39L113.79 37.81L113.85 37.36L114.05 36.65V36.23L114.11 35.78V35.29L113.92 34.71L113.56 34.52L113.11 34.39H112.76L112.37 34.45L112.01 34.58L111.72 34.94L111.63 35.13L111.53 35.36L111.4 35.91L111.24 36.33L111.04 36.88V37.07L110.91 37.46L110.82 37.94L110.72 38.33L110.62 38.62V38.85V39.04L110.55 39.27L110.49 39.72L110.33 40.2L110.07 41.5V41.76L109.94 42.27V42.5L109.87 42.92L109.81 43.18L109.71 43.66V44.34L109.61 44.57V44.79V45.05V45.28L109.54 45.5V45.73L109.44 46.41V46.67L109.34 47.12V47.57V47.9V48.09V48.32L109.47 48.8L109.73 49.03L110.21 49.19L110.73 49.12H111.22L111.67 48.83L111.8 48.67L112.06 48.09L112.22 47.64L112.35 47.22V47.02V46.86L112.45 46.47L112.55 45.99L112.61 45.7V45.47L112.78 45.05L112.84 44.73L113.07 44.47H113.32H114.16H114.84L116.43 44.57H116.81L117.04 44.8L117.17 45.02V45.38L117.11 45.57V45.8L117.04 46.22V46.57L116.97 46.73V46.96V47.09L116.87 47.77L117 48L116.8 48.81L116.71 49.2V49.42L116.65 49.65L116.55 49.85L116.36 50.36L116.2 50.75L116.1 50.98L115.97 51.17L115.81 51.36L115.71 51.56L115.65 51.75L115.16 52.33L114.68 52.75L114.16 53.08L113.93 53.17L113.1 53.37L112.71 53.46L112.32 53.53L111.9 53.63H111.41H110.99L110.67 53.69L110.36 53.72Z" fill="#1D1D1B"/>
<path d="M118.83 53.17V52.69V52.46L118.93 52.23V52.01L119.03 51.59V51.39L119.16 50.97V50.75V50.49V50.26L119.26 49.84V49.68L119.33 49.1L119.42 48.87V48.42L119.49 48.23V48L119.62 47.58V47.36L119.78 46.68L119.88 46.23L119.94 45.74L120.07 44.84L120.17 44.38L120.23 44.13L120.33 43.64L120.46 43.16V42.7V42.48L120.53 41.99L120.66 41.35L120.75 40.89V40.63V40.41L120.85 39.89L120.94 39.44V39.08V38.63L121.04 38.44V38.24L121.1 38.02V37.6L121.2 37.4L121.26 36.95V36.72L121.36 36.34L121.42 36.11V36L121.49 35.77V35.58V35.12L121.55 34.93V34.67L121.68 33.83L121.81 33.41V32.99L121.9 32.63V32.21L121.97 31.83L122.06 31.21L122.16 30.92L122.29 30.83H122.58L122.81 30.76H123.26H124.07H124.52H125.13H125.36H125.85H126.33L126.59 30.88L126.69 31.11L126.62 31.43L126.56 31.98V32.44L126.47 32.99L126.37 33.47V33.7L126.3 34.34L126.24 34.6L126.17 34.89V35.22L126.11 35.44V35.67L126.04 35.86L125.88 36.73L125.78 37.12L125.69 37.7L126 38L126.32 37.68L126.52 37.29L126.87 36.87L127.07 36.58L127.26 36.32L127.52 36.09L127.68 35.77L127.75 35.61L128 35.29L128.23 34.96L128.49 34.67L128.65 34.38L128.97 33.9L129.27 33.54L129.33 33.31L129.52 33.06L129.88 32.57L130.17 32.15L130.53 31.67L130.72 31.47L130.82 31.21L131.08 30.86L131.4 30.76H131.98H132.98H133.3H133.47H134.08L134.53 30.7L135.18 30.76H135.47L135.86 30.86L136 31L135.75 31.39L135.65 31.62L135.39 31.94L135.1 32.3L134.94 32.52L134.78 32.68V32.88L134.66 33.04L134.43 33.36L134.3 33.59L134.14 33.91L133.88 34.2L133.75 34.4L133.56 34.59L133.43 34.85L133.17 35.14L133.04 35.46L132.85 35.69L132.68 35.92L132.36 36.3L132.17 36.59L131.97 36.85L131.49 37.56L131.26 37.89L130.97 38.28L130.62 38.82L130.39 39.12L130.23 39.41L130 39.76L129.42 40.54L129.1 41.18L129.16 41.51L129.32 42.02L129.39 42.35L129.55 42.73L129.65 43.12L129.9 44.03L129.97 44.29L130.1 44.71L130.26 45.06L130.39 45.35V45.61L130.49 45.87V46.06L130.62 46.36V46.58L130.78 46.94L130.91 47.32L130.98 47.55L131.24 47.94V48.16V48.36L131.37 48.58L131.5 49V49.2L131.76 49.59V49.88V50.1L131.86 50.3V50.56L131.95 50.78L132.05 50.94V51.2L132.15 51.56L132.38 51.95L132.51 52.3L132.7 52.85L132.76 53.01V53.3H132.02H131.21H130.21H129.92H129.24H129.01H128.3H128L127.88 53.11L127.78 52.69L127.49 51.91L127.23 51.01L127.1 50.62L126.97 50.36L126.87 49.94L126.81 49.71L126.74 49.52L126.58 49.07L126.45 48.61L126.32 48.23L126.13 47.81L126.07 47.39V47.19L125.98 46.97L125.82 46.61V46.39L125.65 46.03V45.77L125.55 45.48L125.46 45.22L125.17 44.38L124.97 43.9H124.88V44.09L124.82 44.35V44.57L124.75 44.77L124.69 45.45L124.62 45.87L124.56 46.26V46.48V46.68L124.47 47.13L124.4 47.39V47.84V48.1V48.52L124.3 48.74L124.23 48.94L124.17 49.62L124.07 50.13L123.98 50.52L123.91 50.72V50.94V51.36L123.78 51.81L123.65 52.17V52.56L123.49 53.2L123.13 53.33H122H121.71H121.32H120.87H120.68H120.58H120.35H119.74H119.45H119.12L118.83 53.17Z" fill="#1D1D1B"/>
<path d="M27.3 22.37C27.3 22.37 29.56 24.06 31 24L31.77 27.31H33.25C32.5451 28.543 31.9107 29.8151 31.35 31.12C31.4452 31.5196 31.6111 31.8989 31.84 32.24C31.5692 31.9691 31.2294 31.7775 30.8575 31.6858C30.4856 31.5942 30.0957 31.606 29.73 31.72C28.53 32.14 27.19 32.07 26.98 33.44C26.5405 32.8081 25.9919 32.2595 25.36 31.82C25.0543 31.5345 24.6935 31.3145 24.2997 31.1735C23.9059 31.0325 23.4874 30.9735 23.07 31C23.3352 31 23.5896 30.8946 23.7771 30.7071C23.9646 30.5196 24.07 30.2652 24.07 30C23.966 29.0767 23.7267 28.1737 23.36 27.32H22.52C22.52 27.32 23.52 27.04 24.1 24.5C24.3295 24.6283 24.5833 24.7071 24.8452 24.7312C25.107 24.7553 25.3709 24.7242 25.62 24.64C26.53 24.35 27.06 24.36 27.1 24.01C27.15 23.49 27.3 22.37 27.3 22.37Z" fill="#4B6E36"/>
<path d="M14.37 5.06C14.9736 5.54274 15.6888 5.86598 16.45 6L16.89 7.85H17.71C17.3188 8.5371 16.965 9.2448 16.65 9.97C16.7039 10.1954 16.7988 10.4089 16.93 10.6C16.7781 10.4492 16.5881 10.3425 16.3802 10.2914C16.1723 10.2404 15.9545 10.2468 15.75 10.31C15.08 10.54 14.33 10.5 14.21 11.31C13.9612 10.9594 13.6533 10.6549 13.3 10.41C13.1322 10.2373 12.9293 10.1024 12.7051 10.0144C12.4809 9.92649 12.2405 9.88747 12 9.9C12.0726 9.90135 12.1447 9.88806 12.2121 9.8609C12.2794 9.83374 12.3406 9.79327 12.3919 9.74193C12.4433 9.69058 12.4837 9.62941 12.5109 9.56207C12.5381 9.49473 12.5513 9.4226 12.55 9.35C12.4912 8.83626 12.3564 8.33411 12.15 7.86H11.68C11.68 7.86 12.25 7.7 12.57 6.28C12.6957 6.35374 12.836 6.39912 12.9811 6.41293C13.1262 6.42675 13.2726 6.40869 13.41 6.36C13.92 6.2 14.22 6.2 14.24 6C14.26 5.8 14.37 5.06 14.37 5.06Z" fill="#4B6E36"/>
<path d="M5.41 24.68H8.66C9.33889 20.6833 11.2434 16.9965 14.11 14.13C16.9765 11.2634 20.6633 9.35889 24.66 8.68V5.41C22.5015 5.71613 20.3993 6.33601 18.42 7.25L18.5 7.34C18.5753 7.48343 18.6147 7.643 18.6147 7.805C18.6147 7.96701 18.5753 8.12658 18.5 8.27C18.17 8.86 17.79 9.58 17.61 9.96L17.68 10.07C17.8045 10.2641 17.8524 10.4974 17.8146 10.7249C17.7767 10.9523 17.6557 11.1575 17.4751 11.3008C17.2945 11.444 17.0671 11.5151 16.837 11.5002C16.6069 11.4853 16.3906 11.3854 16.23 11.22C16.1821 11.1795 16.1226 11.155 16.06 11.15L15.5 11.31C15.3713 11.335 15.2443 11.3684 15.12 11.41C15.0821 11.591 14.9917 11.7568 14.8601 11.8866C14.7285 12.0164 14.5615 12.1046 14.38 12.14H14.21C14.0461 12.1434 13.8843 12.1025 13.7417 12.0215C13.5991 11.9405 13.4811 11.8225 13.4 11.68C13.201 11.4455 12.9763 11.2342 12.73 11.05C8.7679 14.595 6.17706 19.4191 5.41 24.68Z" fill="black"/>
<path d="M8.66 31.11H5.41C6.1122 35.9724 8.36821 40.4773 11.8412 43.9521C15.3142 47.4269 19.818 49.6853 24.68 50.39V47.14C20.6761 46.4617 16.9826 44.5539 14.1119 41.6815C11.2413 38.809 9.33584 35.1143 8.66 31.11Z" fill="black"/>
<path d="M47.14 24.68H50.39C49.6853 19.818 47.4269 15.3142 43.9521 11.8412C40.4773 8.36821 35.9724 6.1122 31.11 5.41V8.66C35.1143 9.33584 38.809 11.2413 41.6815 14.1119C44.5539 16.9826 46.4617 20.6761 47.14 24.68Z" fill="black"/>
<path d="M45.3 37.4C45.3753 37.5434 45.4147 37.703 45.4147 37.865C45.4147 38.027 45.3753 38.1866 45.3 38.33C44.97 38.93 44.59 39.64 44.41 40.02L44.48 40.14C44.6312 40.3362 44.6982 40.5845 44.6663 40.8302C44.6344 41.0759 44.5063 41.2988 44.31 41.45C44.1137 41.6012 43.8655 41.6682 43.6198 41.6363C43.3741 41.6044 43.1512 41.4762 43 41.28C42.9795 41.258 42.9548 41.2405 42.9272 41.2284C42.8997 41.2164 42.87 41.2101 42.84 41.21L42.28 41.37L41.91 41.47C41.8646 41.6491 41.7705 41.8121 41.6381 41.9409C41.5057 42.0698 41.3402 42.1595 41.16 42.2C38.3776 44.7798 34.9017 46.49 31.16 47.12V50.37C36.0113 49.6569 40.503 47.3974 43.9675 43.9275C47.432 40.4576 49.6845 35.9624 50.39 31.11H47.14C46.7804 33.2105 46.0777 35.2376 45.06 37.11C45.1576 37.1906 45.2391 37.289 45.3 37.4Z" fill="black"/>
<path d="M54.19 26.29H42.55C42.1853 22.9586 40.7007 19.8495 38.3391 17.4716C35.9776 15.0937 32.8788 13.5877 29.55 13.2V1.61C29.55 1.183 29.3804 0.773492 29.0784 0.471558C28.7765 0.169625 28.367 0 27.94 0C27.513 0 27.1035 0.169625 26.8016 0.471558C26.4996 0.773492 26.33 1.183 26.33 1.61V13.2C23.0005 13.586 19.9008 15.0914 17.5389 17.4697C15.177 19.8479 13.693 22.9579 13.33 26.29H1.61C1.183 26.29 0.773492 26.4596 0.471558 26.7616C0.169625 27.0635 0 27.473 0 27.9C0 28.327 0.169625 28.7365 0.471558 29.0384C0.773492 29.3404 1.183 29.51 1.61 29.51H13.25C13.6116 32.8416 15.0954 35.9513 17.4578 38.3282C19.8202 40.7051 22.9206 42.208 26.25 42.59V54.19C26.25 54.4014 26.2916 54.6108 26.3726 54.8061C26.4535 55.0015 26.5721 55.1789 26.7216 55.3284C26.8711 55.4779 27.0485 55.5965 27.2439 55.6774C27.4392 55.7584 27.6486 55.8 27.86 55.8C28.0714 55.8 28.2808 55.7584 28.4761 55.6774C28.6715 55.5965 28.8489 55.4779 28.9984 55.3284C29.1479 55.1789 29.2665 55.0015 29.3474 54.8061C29.4284 54.6108 29.47 54.4014 29.47 54.19V42.59C32.6655 42.2586 35.6631 40.8845 38 38.68C37.8635 38.5904 37.7534 38.4661 37.6808 38.3199C37.6082 38.1736 37.5759 38.0107 37.5871 37.8478C37.5983 37.685 37.6526 37.528 37.7445 37.3931C37.8364 37.2581 37.9626 37.1501 38.11 37.08C38.3153 36.8045 38.4462 36.4808 38.49 36.14C38.5056 35.9836 38.5605 35.8337 38.6497 35.7043C38.7389 35.5749 38.8594 35.4702 39 35.4C39.1369 35.3491 39.2848 35.3353 39.4288 35.3599C39.5728 35.3844 39.7077 35.4466 39.82 35.54H39.89L40.14 35.47C40.14 35.22 40.2 35 40.2 35C40.2281 34.8424 40.2936 34.6938 40.3911 34.5668C40.4885 34.4397 40.615 34.338 40.76 34.27C40.8965 34.216 41.0439 34.1954 41.19 34.21C41.8938 32.7325 42.3434 31.147 42.52 29.52H54.19C54.617 29.52 55.0265 29.3504 55.3284 29.0484C55.6304 28.7465 55.8 28.337 55.8 27.91C55.8 27.483 55.6304 27.0735 55.3284 26.7716C55.0265 26.4696 54.617 26.3 54.19 26.3V26.29ZM27.9 39.47C25.6096 39.4799 23.3677 38.8098 21.4585 37.5445C19.5492 36.2792 18.0585 34.4757 17.1751 32.3624C16.2918 30.2492 16.0555 27.9213 16.4963 25.6736C16.937 23.426 18.035 21.3597 19.6511 19.7366C21.2672 18.1135 23.3286 17.0066 25.5744 16.5561C27.8201 16.1056 30.149 16.3318 32.266 17.206C34.3831 18.0802 36.193 19.5631 37.4666 21.4669C38.7401 23.3706 39.42 25.6095 39.42 27.9C39.4227 30.9607 38.2114 33.8976 36.0518 36.0665C33.8923 38.2354 30.9607 39.4594 27.9 39.47Z" fill="black"/>
<path d="M41.15 35.12C41.757 35.5977 42.4768 35.9111 43.24 36.03L43.67 37.88H44.5C44.1088 38.5671 43.755 39.2748 43.44 40C43.4915 40.2245 43.5829 40.4379 43.71 40.63C43.5581 40.4792 43.3681 40.3725 43.1602 40.3214C42.9523 40.2703 42.7345 40.2768 42.53 40.34C41.86 40.57 41.11 40.54 41 41.34C40.7513 40.9894 40.4433 40.6849 40.09 40.44C39.9138 40.2833 39.708 40.1636 39.4847 40.0881C39.2613 40.0125 39.0251 39.9825 38.79 40C38.8626 40.0014 38.9347 39.9881 39.0021 39.9609C39.0694 39.9337 39.1306 39.8933 39.1819 39.8419C39.2333 39.7906 39.2737 39.7294 39.3009 39.6621C39.3281 39.5947 39.3414 39.5226 39.34 39.45C39.3027 38.926 39.1881 38.4105 39 37.92H38.53C38.53 37.92 39.1 37.76 39.41 36.34C39.537 36.4152 39.6791 36.4614 39.826 36.4753C39.973 36.4891 40.1212 36.4702 40.26 36.42C40.77 36.26 41.07 36.26 41.08 36.07L41.15 35.12Z" fill="#4B6E36"/>
<path d="M12.48 48.12C13.0895 48.5935 13.8081 48.9064 14.57 49.03L15 50.88H15.83C15.4353 51.5668 15.0781 52.2745 14.76 53C14.8139 53.2254 14.9088 53.4389 15.04 53.63C14.8881 53.4792 14.6981 53.3725 14.4902 53.3214C14.2823 53.2703 14.0645 53.2768 13.86 53.34C13.19 53.57 12.44 53.53 12.32 54.34C12.0777 53.9874 11.7726 53.6823 11.42 53.44C11.2455 53.2808 11.0398 53.1596 10.8161 53.0839C10.5923 53.0081 10.3553 52.9796 10.12 53C10.1926 53.0014 10.2647 52.9881 10.3321 52.9609C10.3994 52.9337 10.4606 52.8933 10.5119 52.8419C10.5633 52.7906 10.6037 52.7294 10.6309 52.6621C10.6581 52.5947 10.6714 52.5226 10.67 52.45C10.6128 51.9371 10.4815 51.4352 10.28 50.96H9.8C9.8 50.96 10.37 50.8 10.69 49.38C10.817 49.4552 10.9591 49.5014 11.106 49.5153C11.253 49.5291 11.4012 49.5102 11.54 49.46C12.05 49.3 12.34 49.3 12.36 49.1C12.38 48.9 12.48 48.12 12.48 48.12Z" fill="#4B6E36"/>
</g>
<defs>
<clipPath id="clip0_4_17">
<rect width="167.79" height="55.8" fill="white"/>
</clipPath>
</defs>
</svg>
