<svg width="12" height="16" fill="none" xmlns="http://www.w3.org/2000/svg"><g clip-path="url(#clip0_19_32)"><path d="M11 4.5C10.51 2.21 9.09.77 6.84.15c-.27-.07-.55-.1-.82-.16h-.93c-.21.03-.42.06-.63.1C.75.86-1.15 5.01.74 8.29c1.42 2.47 2.91 4.9 4.37 7.34.25.41.66.41.9 0 1.43-2.4 2.87-4.8 4.3-7.21.73-1.22.99-2.54.7-3.93L11 4.5zM5.56 8.25a2.74 2.74 0 01-2.75-2.74c0-1.52 1.22-2.75 2.75-2.74A2.74 2.74 0 018.3 5.52c0 1.52-1.22 2.73-2.74 2.74v-.01z" fill="#fff"/></g><defs><clipPath id="clip0_19_32"><path fill="#fff" d="M0 0h11.12v15.95H0z"/></clipPath></defs></svg>