<svg width="12" height="16" viewBox="0 0 12 16" fill="none" xmlns="http://www.w3.org/2000/svg">
<g clip-path="url(#clip0_19_32)">
<path d="M11 4.49999C10.51 2.20999 9.09 0.76999 6.84 0.14999C6.57 0.0799902 6.29 0.0499902 6.02 -0.0100098H5.09C4.88 0.0199902 4.67 0.0499902 4.46 0.0899902C0.749996 0.85999 -1.15 5.00999 0.739996 8.28999C2.16 10.76 3.65 13.19 5.11 15.63C5.36 16.04 5.77 16.04 6.01 15.63C7.44 13.23 8.88 10.83 10.31 8.41999C11.04 7.19999 11.3 5.87999 11.01 4.48999L11 4.49999ZM5.56 8.24999C4.04 8.24999 2.81 7.02999 2.81 5.50999C2.81 3.98999 4.03 2.75999 5.56 2.76999C7.08 2.76999 8.3 3.99999 8.3 5.51999C8.3 7.03999 7.08 8.24999 5.56 8.25999V8.24999Z" fill="white"/>
</g>
<defs>
<clipPath id="clip0_19_32">
<rect width="11.12" height="15.95" fill="white"/>
</clipPath>
</defs>
</svg>
