<svg width="168" height="56" fill="none" xmlns="http://www.w3.org/2000/svg"><g clip-path="url(#clip0_4_17)"><path d="M62.53 25h-3.31l-.22-.2v-.26l.06-.32v-.48l.1-.26.07-.29.06-.46.07-.38v-.23l.13-.42.06-.45v-.45l.07-.2v-.22l.07-.23v-.26l.09-.26v-.19l.22-.54.07-.51.12-.33v-.32l.1-.45.1-.26.06-.26v-.42l.1-.42.07-.42v-.23l.09-.38v-.33l.06-.32.23-.45v-.46l.07-.16.13-.42v-.26l.13-.45.06-.45v-.49l.06-.22.1-.29v-.68l.07-.23V9.5l.1-.26v-.71l.28-.19v-.2l.06-.48.13-.46.07-1 .09-.48.1-.42.19-.78.1-.42v-1l.06-.29.1-.16.29-.26h2.49l1.58.06H70l.36.07h.32l.49.13.39.09.32.17.29.13.36.29.42.45.29.26.13.19.09.16.13.39.2.45v.49L74 6l.07.38v.49L74 7v.42l-.06.23v.19l-.07.42v.23l-.22.51v.19l-.06.23v.32l-.06.2-.07.22-.09.2-.13.29L73 11l-.23.33-.25.38-.42.42-.17.13-.16.2-.16.13-.22.13-.39.22-.39.16-.29.13v.2l.32.13.36.19.29.13.39.26.19.22.19.2.2.32.13.23.16.35.06.33.1.19.06.42.13.42v.42l.07.32v.94l-.06.49-.1.48-.1.42v.23l-.1.45-.06.19-.06.23-.07.19-.06.23-.52 1-.29.39-.2.36-.35.14-.22.19-.13.16-.26.17-.2.09-.16.16-.22.13-.17.13-.16.1-.22.1-.26.13-.36.09-.26.1h-.48l-.42.1h-.19l-.49.1h-3.78l-.49-.05zm2.39-4.2l.81.1h.62l.22-.1h.23l.22-.1.3-.22.22-.2.2-.29v-.26l.16-.35.06-.23v-.26l.16-.42.06-.58v-.97l-.18-.76-.35-.33-.65-.22-.32-.07-.26-.06h-1.23l-.1.29-.06.58-.07.26-.06.13-.07.48-.06.23v.22l-.07.2v.26l-.06.45-.07.22-.09.49v.23l-.07.45-.06.26v.25l-.12.43h.51l.18-.11zm2.23-9.8l.39-.07.26-.16.36-.23.38-.32.16-.29.3-.33.16-.46.1-.38.07-.2V8.3l.12-.3v-.97l-.19-.39-.1-.16-.26-.22h-.19l-.29-.06-.58-.07h-.81l-.26.07v.22l-.1.3v.51l-.1.39v.23l-.1.42v.22l-.06.2-.41 1.52-.06.26V11h1.21zM77.4 25.08h-2.59l-.29-.08-.1-.35.07-.17v-.25l.16-.46v-.48l.1-.45v-.49l.1-.48v-.23l.07-.26v-.22l.13-.42v-.2l.09-.58.1-.23v-.13l.06-.29.07-.22v-.42l.07-.26.06-.42v-.16l.13-.39v-.19l.09-.42.1-.23v-.23l.07-.29.13-.68v-.19l.06-.45v-.46l.13-.45v-.22l.07-.46.13-.25v-.42l.06-.38.1-.42.16-.46.1-.67v-.46l.09-.22.07-.46v-.42l.13-.38v-.2L77.4 8v-.22l.13-.42v-.91l.07-.16.06-.45.1-.42.15-.42v-.39L78 4.3l.13-.36.07-.48.06-.2v-.58l.1-.19.39-.07h3.47l.36.1.13.32v.61l-.07.1v.55l-.09.13v.29l-.1.16-.07.45-.13.29v.88l-.25.81v.35l-.06.2-.11.34v.85l-.07.42-.09.38-.1.42v.16l-.1.46-.06.16H83l.51.06h.26l1 .16.48.1.23.07.26.16.22.1.39.22.32.26.1.16.23.26.16.23.13.26.19.41v.23l.26.71v.23l.1.35v1.75l-.06.35-.07.23-.06.52-.07.45-.06.23-.07.26-.06.22-.13.39-.1.45-.09.26-.17.45-.2.62-.16.35-.45.87-.19.2-.23.39-.26.26-.29.32-.19.22-.58.49-.42.23-.33.09-.45.2-.48.16-.39.06h-.42l-.45.07-.94.06h-2.85l-.22.11zm3.23-4.3l.48-.07.2-.09.58-.36.32-.32.23-.36.16-.19.16-.39.23-.58.1-.55.12-.71v-1.39l-.12-.39-.2-.29-.35-.19-.26-.07-.75-.1h-.93l-.07.29-.06.42-.07.39-.13.45v.26l-.13.45v.26l-.06.45v.62l-.16.32V19l-.1.48v.26l-.13.42v.48l.68.07.26.07zm11.12 4.3h-.94l-.45-.08h-1.59l-.25-.23v-.48l.16-.46v-.48l.06-.23.07-.45v-.26l.1-.48v-.23l.06-.26v-.22l.13-.42v-.2l.1-.58.1-.36.06-.29.1-.29.06-.29.07-.39v-.22l.06-.23v-.19l.07-.23v-.22l.22-.72.07-.48v-.19l.06-.23v-.42l.06-.45v-.46l.13-.45v-.22l.06-.46.13-.25v-.48l.07-.38.09-.42.17-.46.09-.67v-.46l.1-.22.06-.46v-.42l.13-.38v-.2l.26-.43v-.22l.13-.42v-.91l.06-.16.07-.45.09-.42v-.2l.17-.22v-.39L92 4.3l.13-.36.06-.48.07-.2v-.22l.22-.33.23-.09.2-.13h3.61l.36.1.13.32v.61l-.07.1v.55l-.09.13v.29l-.1.16-.07.45-.13.29v.88l-.16.84-.07.35-.06.2-.09.24v.85l-.17.46-.09.38-.1.42v.16l-.1.46-.1.29V12l-.07.42-.09.32-.17 1-.12.46-.1.22v.26l-.1.42-.06.42-.07.39-.13.45v.26l-.13.45v.26l-.06.45v.62l-.16.32v.36l-.1.48v.26l-.13.42v.26l-.1.45-.06.45-.07.42V22l-.09.35-.13.78-.1.42-.17.45-.1.42v.26l-.1.29-.36.1H92l-.25.01zm11.05.32h-1.59l-.22-.07h-.2l-.42-.16-.38-.13-.2-.16-.32-.2-.16-.12-.2-.13-.42-.33-.13-.16-.16-.16-.22-.45-.29-.42-.1-.42-.07-.2-.06-.42-.06-.22v-3.62l.07-.45v-.43l.06-.67.13-.46v-.29l.07-.26.09-.35v-.16l.1-.58.13-.2v-.68l.1-.35.06-.36.1-.32v-.77l.1-.2v-.45l.16-.65.06-.22.17-.36V9.5l.1-.19v-.23l.06-.23v-.42l.1-.22.09-.42.23-.65.19-.65.13-.45.19-.55.17-.39.19-.45.13-.35.23-.2.22-.32.26-.32.45-.46.2-.16.42-.19.19-.1.68-.29.55-.1.42-.09h1.84l.81.1.29.1h.32l.46.06h.19l.23.07h.22l.13.1.36.06.45.16.42.33.36.32.06.16.16.29.1.16.06.23.16.32.07.36v2.62l-.07.25-.06.49-.07.52.06 1.23-.07.25-.16.84-.13.13h-2.84l-.94-.13-.23-.36v-.45l.07-.23.13-.58.06-.45.2-.71v-.42l.06-.45V7l-.19-.58-.36-.19-.45-.13h-.35l-.39.06-.36.13-.29.36-.1.19-.09.23-.13.54L104 8l-.2.55v.2l-.13.39-.09.48-.1.39-.1.29v.42l-.07.23-.06.45-.16.48-.26 1.3v.25l-.13.52v.23l-.06.42-.06.26-.1.48v.68l-.1.23v.71l-.07.22v.23l-.09.68v.26l-.1.45V20l.13.49.26.23.48.16.52-.07h.49l.45-.29.13-.16.25-.58.17-.45.13-.42v-.36l.1-.39.09-.48.07-.29v-.23l.16-.42.07-.32.22-.26h1.78l1.58.1h.39l.23.22.13.23v.36l-.07.19v.23l-.06.42v.35l-.07.16v.36l-.1.68-.06.19-.2.81-.1.39v.22l-.06.23-.1.19-.19.52-.16.39-.1.22-.13.2-.16.19-.1.2-.06.19-.49.58-.48.42-.52.33-.23.09-.84.2-.39.09-.38.07-.42.1h-.91l-.32.06-.45.06zm10.92-.4h-.23l-.29-.25.07-.49v-.68l.23-.68.06-.22v-.49l.07-.19v-.68l.16-.45v-.49l.16-.68v-.25l.1-.39.1-.49.06-.22v-.23l.07-.42.06-.19v-.46l.16-.32-.07-.32v-.23l.07-.22.16-.46.13-.48.07-.23-.07-.22.16-.39.07-.2v-.45l.09-.32V13l.07-.23.13-.19v-.23l.06-.19.1-.49v-.22l.16-.36v-.32l.06-.16v-.49l.06-.23.16-.51v-.85l.09-.42.07-.23.06-.48v-.52h-3.3l-.29-.1-.1-.29.07-.39.09-.26v-.51l.13-.45.06-.2v-.45l.13-.42.09-.19v-.65l.16-.35.29-.23h10.99l.29.07.06.25v.42l-.07.26v.42l-.06.23v.19l-.07.39-.06.23v.58l-.13.42-.06.23v.45l-.13.29h-3.27l-.06.23v.19l-.1.23v.19l-.06.2-.06.42v.22l-.13.58-.13.26.07.16-.16.46-.13.42v1l-.16.39-.06.48-.07.23-.09.45-.1.19v.65l-.1.39-.13.22v.46l-.07.19v.19l-.09.46-.1.48-.07.29v.52l-.06.19v.23l-.12.39v.64l-.09.46-.1.51-.13.42v.23l-.1.42-.16.68-.07.26-.09.45v.26l-.16.71-.19.9-.07.46-.1.45-.06.19-.39.16h-2.86l-.39.1-.29-.08zm10.89 0h-.81l-.19-.16v-.61l.1-.2v-.22l.1-.45v-.2l.1-.45.09-.49.1-.42v-.22l.1-.39v-.42l.12-.74.1-.2v-.64l.06-.2.13-.42v-.74l.17-.32v-.36L125 17v-.23l.1-.19v-.49l.1-.68.09-.22v-.71l.06-.23v-.19l.06-.23v-.19l.1-.46v-.25l.07-.49.09-.52.1-.42v-.8l.07-.23.09-.23v-.61l.13-.52v-.48l.1-.42v-.78l.07-.26.09-.45.1-.29v-.39l.07-.23v-.25l.06-.23v-.42l.07-.23.13-.51v-.49l.1-.45v-.26l.13-.42.26-.13h6.04l.49.06h.26l.42.07.67.1.52.09.23.07.22.16.23.1.42.22.29.26.13.16.19.26.2.23.09.26.2.42.06.22.13.36v.58l.09.35v1.72l-.06.36v.22l-.07.71-.06.45-.1.23v.26l-.1.23v.19l-.07.19-.09.46-.1.25-.16.46-.26.61-.16.36-.23.38-.29.49-.19.19-.23.39-.29.26-.23.32-.16.23-.42.32-.16.2-.45.22-.32.1-.42.19-.52.16-.39.07h-.42l-.45.07-.91.06h-1.3v.29l-.1.26v.42l-.06.16v.84l-.06.19v.42l-.09.45-.1.29-.07.39-.06.23-.1.39v.22l-.1.23v.32l-.09.49v.45l-.13.19v.49l-.06.19v.23l-.1.26v.55l-.1.38h-2.81l-.87-.07zM131 12.63l.36-.06.61-.07.23-.09.51-.39.36-.32.23-.36.13-.19.16-.45.06-.3.13-.29.13-.55.13-.9.06-.84v-.55l-.1-.39-.2-.29-.35-.26-.29-.06h-1.62l-.23.06-.16.39-.06.16v.32l-.07.55L131 8l-.1.39-.1.64-.06.33-.1.51v.65l-.07.29-.16.81v.29l-.1.45v.29l.69-.02zM141.54 25h-2.77l-.3-.06-.09-.29.09-.29.07-.3.06-.48.07-.52.13-.48v-.52l.1-.26v-.29l.06-.22v-.23l.07-.26v-.68l.07-.42.13-.26.06-.51v-.23l.06-.26.07-.42v-.16l.13-.39v-.19l.09-.42.1-.23v-.22l.1-.49.06-.23.13-.67v-.49l.13-.45.07-.49.09-.22v-.71l.13-.2.19-1 .1-.26.26-.2v-.2l.1-.45.13-.48v-.91l.1-.22v-.68l.13-.2.06-.26v-.64l.13-.42.07-.45.1-.2v-.2l.09-.23v-.19L142 5v-.42l.06-.19v-.81l-.07-.23.1-.39.1-.19v-.19l.26-.2h8.85l.17.23-.1.35v.2l-.07.81v.23l-.09.23v.42l-.09.48v.26l-.13.45v.2l-.09.42h-4.95l-.09.39v.68l-.09.19v.26l-.1.62-.07.45-.09.45-.07.23v.25l-.09.33-.07.58H147l.61-.06h.84l.26.06.19.26-.06.39V12l-.07.35-.09.46-.07.22-.09.49v.22l-.1.26-.07.45-.09.52-.07.45-.06.07h-3.55l-.13.36-.1.42-.13.9-.1.33-.06.29v.32l-.07.23-.1.58-.13.84v.26l.13.13.46.06h3.97l.23.1v.39l-.06.35v.26l-.13.71v.42l-.07.23-.06.19v.23l-.1.48v.55l-.07.29-.1.36h-5.65l-.77.23zm21.24.08h-.94l-.45-.07h-1.33l-.26-.01-.29-.16v-.3l.07-.67.13-.52.09-.45v-.49l.1-.48v-.23l.06-.26v-.22l.13-.42v-.2l.1-.58.1-.36.06-.29.1-.29.06-.29.07-.39v-.22l.06-.23v-.19l.07-.23v-.22l.22-.72.07-.48v-.19l.09-.46v-.19l.06-.45v-.46l.13-.45v-.22l.06-.46.13-.25v-.48l.07-.38.1-.42.16-.46.09-.67v-.46l.1-.22.07-.46v-.42l.13-.38v-.2l.09-.42v-.22l.13-.42v-.62h-2.9v.39l-.06.23-.06.45v.45l-.13.62-.06.45-.2.68v.25l-.06.39-.13.49-.16 1.1-.19.8-.13.72-.16.8-.13.49v.42l-.06.22-.07.42-.06.2-.29 1.29-.19.68-.13.48-.07.23-.1.49-.09.19-.1.23-.13.35-.1.29-.09.2-.26.55-.2.32-.12.19-.43.52-.38.42-.16.23-.2.19-.52.39-.48.39-.45.25-.26.13-.26.1-.55.16-1.16.32h-.71l-.17-.39v-3.94a3.16 3.16 0 00.93-.36l.65-.52.49-.61.35-.55.2-.45.09-.39.16-.45.13-.45.16-.55.2-.84v-.23l.07-.29.09-.42v-.36l.16-.77.07-.26v-.45l.1-.2.06-1 .13-.26.07-.22v-.2l.07-.45.13-.48.06-.91.1-.22.06-.68.13-.2.1-.26v-.64l.16-.42.07-.45.1-.2v-.15l.09-.23-.06-.19.23-.27.07-.42.06-.19v-.62l.07-.19-.07-.23.13-.39.1-.19v-.19l.36-.23.51-.07h.75l.32.07h.48l1.2.06 1.71-.09 1.39.09h.71l.65.06h3.23l.36.1.13.32v.61l-.06.1v.55l-.1.13v.29l-.09.16-.07.45-.13.29v.88l-.16.84-.07.35-.06.2-.07.38v.85l-.07.42-.1.38-.09.42v.16l-.09.46-.1.29v.9l-.07.42-.1.32-.16 1-.06.23-.16.45v.26l-.17.84-.06.39-.13.45v.26l-.13.45v.26l-.06.45v.62l-.16.32v.36l-.09.48v.26l-.13.42v.26l-.1.45-.07.45-.06.42V22l-.1.35-.13.78-.09.42-.07.45-.09.42v.26l-.09.29-.36.1H163l-.22.01zM59.17 53.17v-.71l.1-.23v-.22l.1-.42v-.2l.13-.42v-.71l.1-.42v-.16l.06-.58.1-.23v-.45l.06-.19V48l.13-.42v-.22l.16-.68.1-.45.07-.49.13-.9.09-.46.07-.25.09-.49.13-.48v-.68L61 42l.13-.64.1-.46v-.48l.1-.52.1-.45v-.81l.1-.19v-.2l.06-.22v-.42l.09-.2.07-.45v-.23l.09-.38.07-.23V36l.06-.23v-.65l.07-.19v-.26l.13-.84.13-.42v-.42l.1-.36v-.42l.06-.38.1-.62.1-.29.12-.09h.3l.22-.07H67l.26.12.1.23-.06.32-.07.55v.46l-.1.55-.1.48v.23l-.06.64-.07.26-.06.29v.33l-.07.22v.23l-.06.19-.16.87-.1.39-.1.58.07.23.32-.32.19-.39.36-.42.19-.29.2-.26.26-.23.16-.32.06-.16.26-.32.23-.33.25-.29.17-.29.32-.48.29-.36.06-.23.2-.25.35-.49.29-.42.36-.48.19-.2.1-.26.26-.35.32-.1h2.69l.45-.06.64.06h.3l.38.1.1.22-.26.39-.1.23-.25.32-.3.36-.16.22-.16.16v.2l-.13.16-.23.32-.13.23-.16.32-.26.29-.13.2-.19.19-.13.26-.26.29-.13.32-.19.23-.16.23-.32.38-.2.29-.19.26-.49.71-.22.33-.29.39-.36.54-.23.3-.16.29-.22.35-.59.78-.32.64.07.33.16.51.06.33.16.38.1.39.26.91.06.26.13.42.16.35.13.29v.26l.09.26v.19l.13.3v.22l.16.36.13.38.06.23.26.39v.42l.13.22.13.42v.2l.26.39v.51l.09.2v.26l.1.22.1.16v.26l.1.36.22.39.13.35.19.55.07.16v.29h-4.45l-.39-.07-.13-.19-.1-.42-.29-.78-.26-.9-.13-.39-.12-.26-.1-.42-.07-.23-.06-.19-.16-.45-.13-.46-.13-.38-.19-.42-.07-.42v-.2l-.1-.22-.16-.36v-.22L66 46v-.26l-.1-.29-.1-.26-.29-.84-.19-.48h-.1v.19l-.07.26v.22l-.06.2-.07.68-.06.42-.07.39v.42l-.1.45-.06.26v1.13l-.1.22-.06.2-.07.68-.09.51-.1.39-.06.2v.64l-.13.45-.13.36v.39l-.16.64-.35.13h-4.09l-.22-.13zm19.2.23l-.23-.07h-.77l-.13-.46.32-.71.52-1.16.42-.68.19-.52.13-.22.1-.2.09-.26.1-.22.16-.26.29-.61.16-.33.2-.48.16-.16.1-.26-.07-.39-.19-.78v-.64l-.23-.91-.07-1-.16-.61-.12-.47-.13-.75-.1-.64v-.26l-.11-.59-.09-.32-.12-.44v-.58l-.17-.42v-.42l-.1-.64-.1-.23-.06-.39-.1-.25v-.36l-.19-.48V34l-.07-.28v-1.26l-.18-.46-.1-.42v-.19l.07-.49.19-.13h3.81l.26.12.07.46v.42l.09.45.13.74v.39l.13.39v.45l.1.45v.2l.06 1.32.07.26.06.42V37l.07.88v2.81l.23-.36.9-2.29.07-.19.13-.17.13-.35.12-.23v-.19l.26-.45.16-.39.22-.33.26-.74.23-.42.1-.19.29-.68.06-.2v-.22l.29-.65.1-.22.13-.23.13-.39.1-.19.25-.55.13-.32.29-.07h.72l.48.07.52-.07h1.94l.42.13v.55l-.23.49-.06.16-.23.35-.13.39-.22.39v.23l-.12.38-.13.16-.13.39-.2.36-.06.19-.13.2-.07.19-.22.61-.13.2-.16.45-.26.39v.19l-.42.87-.1.39-.23.29-.19.58-.07.17-.16.19v.19l-.26.42-.13.2-.13.22-.09.42-.1.17-.07.16-.22.52-.23.38-.13.45-.13.2v.16l-.16.19-.19.46-.09.39-.13.16-.1.26-.06.16-.1.13-.29.58-.07.23-.19.32-.23.36-.32 1-.16.39L84 48l-.19.42-.2.39-.06.19-.19.3v.38l-.39.84-.09.2-.26.42-.13.39-.13.19-.23.36-.61 1.26-.78.06h-.45l-.58.06h-.93l-.41-.06zm12.34-.03h-.81l-.19-.17v-.61l.1-.19v-.23l.1-.45v-.2l.1-.45.1-.48.09-.42v-.23l.1-.39v-.42l.13-.74.09-.2v-.64l.06-.2.13-.42v-.74l.16-.32v-.36l.06-.19v-.23l.1-.19v-.49l.1-.68.09-.22v-.71l.06-.23v-.19l.06-.23v-.19l.1-.46v-.25l.07-.49.09-.52.1-.42v-.8l.07-.23.09-.23v-.61l.13-.52v-.48l.1-.42v-.78l.07-.26.09-.45.1-.29v-.39l.07-.22v-.26l.06-.23v-.42l.07-.22.13-.52V32l.1-.45v-.26l.13-.42.26-.13h6.04l.49.07h.26l.42.06.67.1.52.09.23.07.22.16.23.1.42.22.29.26.13.16.19.26.2.23.1.26.19.42.06.22.13.36v.58l.09.36v1.74l-.06.36v.22l-.07.71-.06.46-.1.22v.26l-.1.23v.19l-.06.19-.1.46-.1.26-.16.45-.26.61-.16.36-.23.39-.29.48-.19.19-.23.39-.29.26-.22.32-.17.23-.42.32-.16.2-.45.22-.32.1-.42.19-.52.17-.39.06h-.42l-.45.07-.91.06h-1.81v.29l-.1.26v.42l-.06.16v.84l-.06.19v.42l-.09.46-.1.29-.06.38-.07.23-.1.39v.22l-.1.23v.32l-.09.49v.45l-.13.19v.49l-.07.19v.23l-.1.26v.55l-.1.39h-2.47l-.52-.06zM97.14 41l.36-.07.61-.06.23-.1.52-.39.35-.32.23-.36.13-.19.16-.45.06-.29.13-.3.13-.54.13-.91.06-.84v-.55l-.12-.39-.2-.29-.35-.26-.29-.06h-1.62l-.23.06-.16.39-.06.16v.33l-.07.55-.06.22-.1.39-.1.65-.06.32-.1.52v.64l-.07.29-.16.81v.29l-.1.45v.3h.75zm13.22 12.72h-1.58l-.23-.07h-.19l-.42-.16-.39-.13-.2-.16-.32-.19-.16-.13-.19-.13-.42-.33-.13-.16-.17-.16-.22-.45-.29-.42-.1-.42-.06-.2-.07-.42-.06-.22v-3.62l.07-.45v-.42l.06-.68.13-.45v-.3l.07-.25.09-.36v-.16l.1-.58.13-.2v-.68l.1-.35.06-.36.1-.32V40l.1-.2v-.45l.16-.64.06-.23.07-.36v-.32l.1-.19v-.23l.06-.23v-.42l.1-.22.09-.42.23-.65.19-.65.13-.45.2-.55.16-.38.19-.46.13-.35.23-.2.22-.32.26-.32.45-.46.2-.16.42-.19.19-.1.68-.29.55-.1.42-.09h1.84l.81.1.29.1h.33l.45.06h.19l.23.07h.22l.13.1.36.06.45.16.42.33.36.32.06.16.16.29.1.16.06.23.17.32.06.36v2.62l-.07.26-.06.48-.07.52-.19 1.26-.06.26-.17.84-.13.13h-2.84l-.94-.13-.23-.36v-.45l.07-.23.13-.58.06-.45.2-.71v-.42l.06-.45v-.49l-.19-.58-.36-.19-.45-.13h-.35l-.39.06-.36.13-.29.36-.09.19-.1.23-.13.55-.16.42-.2.55v.19l-.13.39-.09.48-.1.39-.1.29v.42l-.07.23-.06.45-.16.48-.26 1.3v.26l-.13.51v.23l-.07.42-.06.26-.1.48v.68l-.1.23v.71l-.07.22v.23l-.1.68v.26l-.1.45v1.2l.13.48.26.23.48.16.52-.07h.49l.45-.29.13-.16.26-.58.16-.45.13-.42v-.36l.1-.39.1-.48.06-.29v-.23l.17-.42.06-.32.23-.26h1.77l1.59.1h.38l.23.23.13.22v.36l-.06.19v.23l-.07.42v.35l-.07.16v.36l-.1.68.13.23-.2.81-.09.39v.22l-.06.23-.1.2-.19.51-.16.39-.1.23-.13.19-.16.19-.1.2-.06.19-.49.58-.48.42-.52.33-.23.09-.83.2-.39.09-.39.07-.42.1h-.91l-.32.06-.31.03zm8.47-.55v-.71l.1-.23v-.22l.1-.42v-.2l.13-.42v-.71l.1-.42v-.16l.07-.58.09-.23v-.45l.07-.19V48l.13-.42v-.22l.16-.68.1-.45.06-.49.13-.9.1-.46.06-.25.1-.49.13-.48v-.68l.07-.49.13-.64.09-.46v-.48l.1-.52.09-.45v-.81l.1-.19v-.2l.06-.22v-.42l.1-.2.06-.45v-.23l.1-.38.06-.23V36l.07-.23v-.65l.06-.19v-.26l.13-.84.13-.42v-.42l.09-.36v-.42l.07-.38.09-.62.1-.29.13-.09h.29l.23-.07h3.52l.26.12.1.23-.07.32-.06.55v.46l-.09.55-.1.48v.23l-.07.64-.06.26-.07.29v.33l-.06.22v.23l-.07.19-.16.87-.1.39-.09.58.31.3.32-.32.2-.39.35-.42.2-.29.19-.26.26-.23.16-.32.07-.16.25-.32.23-.33.26-.29.16-.29.32-.48.3-.36.06-.23.19-.25.36-.49.29-.42.36-.48.19-.2.1-.26.26-.35.32-.1h2.68l.45-.06.65.06h.29l.39.1.14.14-.25.39-.1.23-.26.32-.29.36-.16.22-.16.16v.2l-.12.16-.23.32-.13.23-.16.32-.26.29-.13.2-.19.19-.13.26-.26.29-.13.32-.19.23-.17.23-.32.38-.19.29-.2.26-.48.71-.23.33-.29.39-.35.54-.23.3-.16.29-.23.35-.58.78-.32.64.06.33.16.51.07.33.16.38.1.39.25.91.07.26.13.42.16.35.13.29v.26l.1.26v.19l.13.3v.22l.16.36.13.38.07.23.26.39v.42l.13.22.13.42v.2l.26.39v.51l.1.2v.26l.09.22.1.16v.26l.1.36.23.39.13.35.19.55.06.16v.29H128l-.12-.19-.1-.42-.29-.78-.26-.9-.13-.39-.13-.26-.1-.42-.06-.23-.07-.19-.16-.45-.13-.46-.13-.38-.19-.42-.06-.42v-.2l-.09-.22-.16-.36v-.22l-.17-.36v-.26l-.1-.29-.09-.26-.29-.84-.2-.48h-.09v.19l-.06.26v.22l-.07.2-.06.68-.07.42-.06.39v.42l-.09.45-.07.26v1.13l-.1.22-.07.2-.06.68-.1.51-.09.39-.07.2v.64l-.13.45-.13.36v.39l-.16.64-.36.13h-4.01l-.29-.16z" fill="#1D1D1B"/><path d="M27.3 22.37S29.56 24.06 31 24l.77 3.31h1.48a37.528 37.528 0 00-1.9 3.81c.095.4.261.779.49 1.12a2.1 2.1 0 00-2.11-.52c-1.2.42-2.54.35-2.75 1.72a6.481 6.481 0 00-1.62-1.62 3.07 3.07 0 00-2.29-.82 1 1 0 001-1 9.479 9.479 0 00-.71-2.68h-.84s1-.28 1.58-2.82a1.88 1.88 0 001.52.14c.91-.29 1.44-.28 1.48-.63.05-.52.2-1.64.2-1.64zM14.37 5.06a4.61 4.61 0 002.08.94l.44 1.85h.82a21.997 21.997 0 00-1.06 2.12c.054.225.149.439.28.63a1.18 1.18 0 00-1.18-.29c-.67.23-1.42.19-1.54 1a3.701 3.701 0 00-.91-.9A1.691 1.691 0 0012 9.9a.54.54 0 00.55-.55 5.22 5.22 0 00-.4-1.49h-.47s.57-.16.89-1.58a1 1 0 00.84.08c.51-.16.81-.16.83-.36.02-.2.13-.94.13-.94z" fill="#4B6E36"/><path d="M5.41 24.68h3.25a19.55 19.55 0 0116-16V5.41a22.38 22.38 0 00-6.24 1.84l.08.09a1 1 0 010 .93c-.33.59-.71 1.31-.89 1.69l.07.11a.93.93 0 01-1.45 1.15.3.3 0 00-.17-.07l-.56.16a3 3 0 00-.38.1.94.94 0 01-.74.73h-.17a.91.91 0 01-.81-.46 4.096 4.096 0 00-.67-.63 22.68 22.68 0 00-7.32 13.63zm3.25 6.43H5.41a22.77 22.77 0 0019.27 19.28v-3.25A19.56 19.56 0 018.66 31.11zm38.48-6.43h3.25A22.77 22.77 0 0031.11 5.41v3.25a19.56 19.56 0 0116.03 16.02zM45.3 37.4a1 1 0 010 .93c-.33.6-.71 1.31-.89 1.69l.07.12A.934.934 0 1143 41.28a.22.22 0 00-.16-.07l-.56.16-.37.1a1 1 0 01-.75.73 19.46 19.46 0 01-10 4.92v3.25a22.78 22.78 0 0019.23-19.26h-3.25a19.43 19.43 0 01-2.08 6 1 1 0 01.24.29z" fill="#000"/><path d="M54.19 26.29H42.55a14.8 14.8 0 00-13-13.09V1.61a1.61 1.61 0 10-3.22 0V13.2a14.79 14.79 0 00-13 13.09H1.61a1.61 1.61 0 100 3.22h11.64a14.77 14.77 0 0013 13.08v11.6a1.608 1.608 0 002.226 1.487 1.609 1.609 0 00.994-1.487v-11.6A14.63 14.63 0 0038 38.68a.92.92 0 01.11-1.6 2 2 0 00.38-.94.93.93 0 01.51-.74.83.83 0 01.82.14h.07l.25-.07c0-.25.06-.47.06-.47a1 1 0 01.56-.73.92.92 0 01.43-.06 14.559 14.559 0 001.33-4.69h11.67a1.61 1.61 0 100-3.22v-.01zM27.9 39.47A11.57 11.57 0 1139.42 27.9 11.56 11.56 0 0127.9 39.47z" fill="#000"/><path d="M41.15 35.12a4.5 4.5 0 002.09.91l.43 1.85h.83A21.997 21.997 0 0043.44 40c.052.224.143.438.27.63a1.18 1.18 0 00-1.18-.29c-.67.23-1.42.2-1.53 1a3.7 3.7 0 00-.91-.9 1.758 1.758 0 00-1.3-.44.539.539 0 00.55-.55 5.33 5.33 0 00-.34-1.53h-.47s.57-.16.88-1.58a1.002 1.002 0 00.85.08c.51-.16.81-.16.82-.35l.07-.95zm-28.67 13a4.61 4.61 0 002.09.91l.43 1.85h.83A21.92 21.92 0 0014.76 53c.054.225.149.439.28.63a1.18 1.18 0 00-1.18-.29c-.67.23-1.42.19-1.54 1a3.491 3.491 0 00-.9-.9 1.709 1.709 0 00-1.3-.44.539.539 0 00.55-.55 5.33 5.33 0 00-.39-1.49H9.8s.57-.16.89-1.58a1.002 1.002 0 00.85.08c.51-.16.8-.16.82-.36.02-.2.12-.98.12-.98z" fill="#4B6E36"/></g><defs><clipPath id="clip0_4_17"><path fill="#fff" d="M0 0h167.79v55.8H0z"/></clipPath></defs></svg>